<?xml version="1.0" standalone="no"?>
<!DOCTYPE svg PUBLIC "-//W3C//DTD SVG 20010904//EN"
 "http://www.w3.org/TR/2001/REC-SVG-20010904/DTD/svg10.dtd">
<svg version="1.0" xmlns="http://www.w3.org/2000/svg"
 width="40.000000pt" height="39.000000pt" viewBox="0 0 40.000000 39.000000"
 preserveAspectRatio="xMidYMid meet">

<g transform="translate(0.000000,39.000000) scale(0.100000,-0.100000)"
fill="#000000" stroke="none">
<path d="M5 318 c-3 -13 -5 -68 -3 -123 3 -98 4 -100 28 -103 13 -2 30 -13 38
-23 17 -25 58 -24 74 1 18 29 118 29 136 0 16 -26 58 -26 74 0 7 11 18 20 25
20 17 0 27 43 20 85 -3 19 -18 50 -33 70 -23 30 -32 35 -69 35 -39 0 -43 2
-48 30 l-6 30 -116 0 c-111 0 -115 -1 -120 -22z m225 -108 l0 -110 -38 0 c-26
0 -41 6 -50 20 -16 26 -58 26 -74 0 -7 -11 -21 -20 -30 -20 -16 0 -18 12 -18
110 l0 110 105 0 105 0 0 -110z m58 15 c4 -45 14 -55 60 -55 29 0 32 -3 32
-30 0 -33 -11 -38 -30 -15 -18 21 -58 19 -72 -5 -22 -35 -28 -22 -28 66 0 76
2 85 18 82 12 -2 18 -15 20 -43z m58 18 c38 -52 38 -53 -5 -53 l-41 0 0 40 c0
48 17 52 46 13z m-216 -132 c7 -15 6 -23 -6 -35 -19 -20 -19 -20 -38 0 -18 18
-6 54 19 54 8 0 19 -9 25 -19z m214 -5 c9 -13 7 -20 -7 -31 -25 -18 -47 -8
-47 20 0 37 34 44 54 11z"/>
<path d="M144 245 c-24 -32 -28 -34 -44 -20 -27 25 -35 17 -10 -10 l24 -25 29
27 c34 33 52 63 38 63 -6 0 -22 -16 -37 -35z"/>
</g>
</svg>
