<?xml version="1.0" standalone="no"?>
<!DOCTYPE svg PUBLIC "-//W3C//DTD SVG 20010904//EN"
 "http://www.w3.org/TR/2001/REC-SVG-20010904/DTD/svg10.dtd">
<svg version="1.0" xmlns="http://www.w3.org/2000/svg"
 width="40.000000pt" height="39.000000pt" viewBox="0 0 40.000000 39.000000"
 preserveAspectRatio="xMidYMid meet">

<g transform="translate(0.000000,39.000000) scale(0.100000,-0.100000)"
fill="#000000" stroke="none">
<path d="M141 362 c-53 -27 -74 -63 -79 -135 -3 -53 0 -68 19 -99 13 -20 31
-49 40 -64 30 -56 95 -68 137 -26 9 9 30 25 45 35 17 11 27 26 27 41 0 13 7
26 15 30 19 7 19 46 0 82 -8 16 -15 39 -15 50 0 33 -37 73 -76 80 -19 3 -37
10 -40 15 -8 14 -36 11 -73 -9z m139 -31 c32 -23 46 -71 32 -113 l-10 -33 -1
30 c-1 22 -11 38 -37 58 -32 26 -37 27 -52 14 -9 -9 -38 -21 -64 -27 -40 -10
-48 -16 -48 -36 0 -12 -5 -26 -10 -29 -14 -8 -13 81 1 106 5 11 25 29 42 40
38 24 107 19 147 -10z m-40 -59 c0 -5 11 -15 25 -22 19 -10 25 -21 25 -47 0
-20 4 -32 10 -28 15 9 12 -12 -5 -45 -17 -33 -10 -40 11 -12 7 9 14 12 14 5 1
-32 -69 -59 -85 -33 -3 6 -17 10 -31 10 -21 0 -25 -4 -22 -22 3 -20 8 -23 42
-21 37 3 38 2 20 -12 -34 -26 -70 -18 -103 22 -17 21 -31 43 -31 50 0 7 -9 21
-20 30 -26 22 -26 36 0 28 17 -6 20 -2 20 29 0 31 3 36 23 36 12 0 38 8 57 19
41 22 50 24 50 13z m97 -104 c-3 -7 -5 -2 -5 12 0 14 2 19 5 13 2 -7 2 -19 0
-25z m-117 -93 c0 -8 -7 -15 -15 -15 -8 0 -15 7 -15 15 0 8 7 15 15 15 8 0 15
-7 15 -15z"/>
</g>
</svg>
